:FULLY-SPECIFIED
:FORCE-ALL-JOINTS-BE-3DOF
:DEGREES
170
root 6.51007 16.0122 -25.6819 4.76005 31.7102 1.57628
lfemur -23.8481 31.0863 -16.9333
ltibia 37.0063 -0 0
lfoot -8.10624 11.809 0.388162
ltoes 32.6091 -0 0
rfemur -25.769 -8.31774 -4.11329
rtibia 75.0717 -0 0
rfoot 7.51044 -24.9722 -1.04056
rtoes 49.2508 -0 0
lowerback 1.43246 -6.60833 -1.98764
upperback -0.249205 -8.8702 -1.97412
thorax -0.988241 -4.42255 -0.657036
lowerneck -9.91391 -6.62333 -1.82776
upperneck 2.05351 -8.89337 5.51397
head 2.78487 -4.24715 1.60936
lclavicle 3.90331e-14 -1.14398e-14 -2.64453e-30
lhumerus -49.2801 -42.8349 115.481
lradius 51.9713 -0 0
lwrist 13.7259 0 0
lhand 39.4791 24.9539 -0.272362
lfingers 7.12502 -0 0
lthumb 62.1101 37.4432 -0.0425347
rclavicle 3.90331e-14 -1.14398e-14 -2.64453e-30
rhumerus -47.8739 -20.6459 -71.8584
rradius 92.0147 -0 0
rwrist -19.1958 0 0
rhand -26.1046 -23.7222 0.245212
rfingers 7.12502 -0 0
rthumb 0.455531 -53.7895 0.200527
171
root 6.4575 15.9805 -25.6703 5.03695 31.3354 1.74184
lfemur -23.3255 30.8649 -16.4134
ltibia 36.5323 -0 0
lfoot -8.57247 11.6644 0.482674
ltoes 32.8584 -0 0
rfemur -25.4363 -8.43377 -4.32452
rtibia 74.941 -0 0
rfoot 6.87785 -24.6133 -1.28224
rtoes 50.1842 -0 0
lowerback 1.18939 -6.56699 -1.94401
upperback -0.309597 -8.81198 -2.11995
thorax -0.927656 -4.39412 -0.841538
lowerneck -9.92541 -6.54777 -1.69744
upperneck 2.10345 -8.8111 5.50646
head 2.80011 -4.20323 1.5896
lclavicle 3.94003e-14 -1.26203e-14 -3.26067e-30
lhumerus -49.6902 -43.2251 115.86
lradius 52.0508 -0 0
lwrist 13.9662 0 0
lhand 39.883 25.248 -0.330462
lfingers 7.12502 -0 0
lthumb 62.48 37.5263 -0.0521167
rclavicle 3.94003e-14 -1.26203e-14 -3.26067e-30
rhumerus -47.0702 -20.5953 -70.9823
rradius 91.6391 -0 0
rwrist -19.4921 0 0
rhand -26.688 -24.491 0.28747
rfingers 7.12502 -0 0
rthumb -0.105536 -54.5781 0.233692
172
root 6.40301 15.9477 -25.659 5.3125 30.9223 1.90896
lfemur -22.7611 30.6071 -15.8663
ltibia 36.0246 -0 0
lfoot -9.06816 11.4907 0.581333
ltoes 33.1225 -0 0
rfemur -25.1166 -8.56202 -4.53972
rtibia 74.781 -0 0
rfoot 6.20992 -24.2017 -1.53113
rtoes 51.1174 -0 0
lowerback 0.94431 -6.51936 -1.89901
upperback -0.36932 -8.74553 -2.27103
thorax -0.865603 -4.36147 -1.03257
lowerneck -9.93918 -6.46438 -1.55746
upperneck 2.15529 -8.71945 5.49482
head 2.81582 -4.15461 1.56736
lclavicle 3.9697e-14 -1.38486e-14 -3.8986e-30
lhumerus -50.1129 -43.6127 116.241
lradius 52.1318 -0 0
lwrist 14.218 0 0
lhand 40.2817 25.5432 -0.389291
lfingers 7.12502 -0 0
lthumb 62.8452 37.6112 -0.0620131
rclavicle 3.9697e-14 -1.38486e-14 -3.8986e-30
rhumerus -46.2188 -20.5383 -70.0442
rradius 91.2188 -0 0
rwrist -19.7872 0 0
rhand -27.2786 -25.2957 0.325478
rfingers 7.12502 -0 0
rthumb -0.673426 -55.4018 0.262708
173
root 6.34681 15.914 -25.6479 5.58544 30.4714 2.07678
lfemur -22.157 30.3124 -15.2945
ltibia 35.484 -0 0
lfoot -9.5924 11.2878 0.683419
ltoes 33.401 -0 0
rfemur -24.8112 -8.70241 -4.75831
rtibia 74.5916 -0 0
rfoot 5.50774 -23.7374 -1.78538
rtoes 52.0471 -0 0
lowerback 0.698015 -6.46545 -1.85279
upperback -0.428198 -8.67088 -2.42697
thorax -0.80228 -4.32459 -1.22962
lowerneck -9.9552 -6.37327 -1.40809
upperneck 2.20886 -8.61852 5.47901
head 2.83195 -4.10135 1.54268
lclavicle 3.99208e-14 -1.51215e-14 -4.55454e-30
lhumerus -50.547 -43.9964 116.621
lradius 52.2139 -0 0
lwrist 14.4807 0 0
lhand 40.6739 25.8386 -0.448587
lfingers 7.12502 -0 0
lthumb 63.2043 37.6977 -0.0721904
rclavicle 3.99208e-14 -1.51215e-14 -4.55454e-30
rhumerus -45.3214 -20.477 -69.0455
rradius 90.7543 -0 0
rwrist -20.0799 0 0
rhand -27.8744 -26.1345 0.358523
rfingers 7.12502 -0 0
rthumb -1.24636 -56.2585 0.286929
